<?xml version="1.0" encoding="utf-8"?><!-- Uploaded to: SVG Repo, www.svgrepo.com, Generator: SVG Repo Mixer Tools -->
<svg width="800px" height="800px" viewBox="0 0 24 24" fill="none" xmlns="http://www.w3.org/2000/svg">
<path fill-rule="evenodd" clip-rule="evenodd" d="M14.6738 17.4378C12.3061 18.5419 9.58622 17.9679 7.85486 16.2039L21.8651 9.67074C21.7109 9.02969 21.4906 8.39446 21.2012 7.77376C18.8672 2.76836 12.9173 0.602811 7.91195 2.93687C2.90655 5.27092 0.740994 11.2207 3.07505 16.2261C5.40911 21.2315 11.3589 23.3971 16.3643 21.063C19.0164 19.8263 20.8713 17.5746 21.682 14.986H17.3429C16.7488 16.0235 15.8397 16.8941 14.6738 17.4378ZM9.60242 6.5621C7.23478 7.66615 5.92615 10.1185 6.16446 12.5786L16.4212 7.79583C14.6899 6.03194 11.9701 5.45805 9.60242 6.5621Z" fill="#000000"/>
</svg>