<?xml version="1.0" encoding="UTF-8"?>
<svg id="Laag_1" data-name="Laag 1" xmlns="http://www.w3.org/2000/svg" xmlns:xlink="http://www.w3.org/1999/xlink" viewBox="0 0 1090.54 593.55">
  <defs>
    <style>
      .cls-1 {
        fill: #fefefe;
      }

      .cls-1, .cls-2, .cls-3, .cls-4, .cls-5, .cls-6, .cls-7, .cls-8, .cls-9, .cls-10, .cls-11, .cls-12, .cls-13, .cls-14, .cls-15, .cls-16, .cls-17, .cls-18, .cls-19, .cls-20, .cls-21, .cls-22 {
        stroke-width: 0px;
      }

      .cls-2 {
        fill: #437e43;
      }

      .cls-3 {
        fill: #c8d9f7;
      }

      .cls-4 {
        fill: #3f6ab6;
      }

      .cls-5 {
        fill: #772b52;
      }

      .cls-6 {
        fill: #d47aa8;
      }

      .cls-23 {
        font-size: 21.83px;
      }

      .cls-23, .cls-24 {
        font-family: Montserrat-SemiBold, Montserrat;
        font-weight: 600;
      }

      .cls-23, .cls-24, .cls-14 {
        fill: #e5e8de;
      }

      .cls-7 {
        fill: #a0d077;
      }

      .cls-24 {
        font-size: 12.84px;
      }

      .cls-8 {
        fill: #ae4c7d;
      }

      .cls-9 {
        fill: none;
      }

      .cls-10 {
        fill: #255025;
      }

      .cls-25 {
        clip-path: url(#clippath-1);
      }

      .cls-11 {
        fill: #cfeab9;
      }

      .cls-26 {
        letter-spacing: -.01em;
      }

      .cls-12 {
        fill: #61b161;
      }

      .cls-13 {
        fill: #5c432c;
      }

      .cls-27 {
        clip-path: url(#clippath);
      }

      .cls-28 {
        letter-spacing: -.02em;
      }

      .cls-15 {
        fill: #d7eac7;
      }

      .cls-16 {
        fill: #1d3357;
      }

      .cls-17 {
        fill: #3d5a8d;
      }

      .cls-18 {
        fill: #89c358;
      }

      .cls-19 {
        fill: #d6d9cf;
      }

      .cls-20 {
        fill: #fbb03b;
      }

      .cls-21 {
        fill: #816447;
      }

      .cls-22 {
        fill: #e6f1dd;
      }
    </style>
    <clipPath id="clippath">
      <path class="cls-9" d="m1068.2,316.44c-5.1,146.49-145.79,263.9-318.59,263.9s-313.5-117.41-318.6-263.9c1.37-11.28,12.23-20.05,25.42-20.05h586.35c13.2,0,24.05,8.77,25.42,20.05Z"/>
    </clipPath>
    <clipPath id="clippath-1">
      <circle class="cls-9" cx="209.94" cy="221.57" r="167.8"/>
    </clipPath>
  </defs>
  <g>
    <g class="cls-27">
      <g>
        <rect class="cls-13" x="360.71" y="296.39" width="744.96" height="283.95"/>
        <path class="cls-21" d="m1098.03,508.08c-10.52-5.86-20.6-12.37-29.23-20.84-10.06-9.87-17.32-21.98-26.66-32.45-6.27-7.02-13.2-12.39-22.5-14.55-12.3-2.85-25.09-1.02-37.49-3.29-14.61-2.67-28.78-8.8-43.69-9.71-13.96-.85-25.12,6.4-35.29,15.23-9.49,8.23-18.3,17.74-29.48,23.76-10.54,5.67-23.9,8.12-35.61,5.04-10.03-2.64-17.81-9.51-25.12-16.51-7.09-6.79-14.85-14.6-25.07-15.98-12.17-1.64-24.86,4-35.49,9.24-11.95,5.9-23.22,13.04-35.04,19.17-26.34,13.68-56.54,12.08-85.31,9.54-15.72-1.39-30.59-3.53-45.7-8.25-14.6-4.55-29.43-10.03-44.97-8.96-8.89.61-17.72,3.05-26.52,4.44-8.71,1.38-17.54,2.41-26.37,1.96-16.53-.84-30.47-7.04-43.93-16.3-12.55-8.64-24.46-17.38-39.77-20.33-14.62-2.81-29.77-.52-44.06,3.38v147.65h744.96v-68.05c-2.55-1.4-5.1-2.8-7.64-4.21Z"/>
        <circle class="cls-21" cx="451.47" cy="383.74" r="16.98"/>
        <ellipse class="cls-21" cx="853.63" cy="440.8" rx="15.43" ry="13.62"/>
        <circle class="cls-21" cx="620.55" cy="446.39" r="12.96"/>
        <circle class="cls-21" cx="1083.36" cy="442.84" r="15.67"/>
        <ellipse class="cls-21" cx="876.47" cy="364.91" rx="23.46" ry="21.6"/>
        <circle class="cls-21" cx="549.93" cy="362.44" r="24.07"/>
        <circle class="cls-13" cx="780.01" cy="477.52" r="18.16"/>
        <circle class="cls-13" cx="940.99" cy="454.09" r="5.27"/>
        <circle class="cls-13" cx="1004.62" cy="480.92" r="21.57"/>
        <circle class="cls-13" cx="492.22" cy="517.04" r="13.28"/>
        <circle class="cls-13" cx="633.33" cy="526.98" r="18.24"/>
        <ellipse class="cls-13" cx="877.44" cy="559.97" rx="24.43" ry="20.37"/>
        <circle class="cls-13" cx="389.74" cy="455.96" r="14.51"/>
      </g>
      <polygon class="cls-20" points="985.99 470.99 965.82 460.39 985.08 448.23 985.99 470.99"/>
      <path class="cls-14" d="m978.81,460.65c-7.26-16.3-15.19-31.95-30.36-43.34-7.65-5.73-14.35-12.3-20.67-19.22-12.43-7.86-25.86-14.49-37.8-22.6-10.7-7.25-21.26-14.63-31.92-21.85,17.36,4.91,34.7,9.77,50.23,17.92,1.76.91,5.35-3.47,3.79-4.7-.23-.19-.44-.35-.67-.53-.08-.07-.18-.05-.27-.08-16.31-11.21-31.94-16.81-51.41-21.14-3.24-.71-6.41-1.57-9.53-2.54,3.81.1,7.6,0,11.44-.12,4.1-.14,8.56.81,12.57.04.95-.19,2.8-3.04,1.23-2.85-2.33.25-5.88-1.5-8.46-1.56-6.42-.12-12.46.32-18.86-.42-6.64-.74-13.13-2.05-19.58-3.5-1.52-.68-3.06-1.36-4.55-2.06-73.28-34.59-66.22-112.16-60.35-180.46.91-10.5,1.5-48.77,1.61-97.19h-22.5c-.18,8.86-.45,17.82-.9,27.12-1.61,32.51-7.01,167.85-17.91,196.66-3.92,10.37-22.89,52.34-36.11,53.15-8.95.53-18.08.38-26.83,1.02-19.01,1.42-36.86,5.87-55.53,9.2-.44.09-1.26,1.38-.56,1.29,19.92-2.41,39.13-5.28,59.26-5.91,5.28-.16,10.96.28,16.63.42-6.01,4.81-12.63,9.33-19.99,13.59-20.97,12.14-43.81,19.17-66.69,26.17-35.55-1.46-69.55-.64-104.23,10.41-.51.15-1.57,1.85-.71,1.65,26.78-6.43,50.1-7.34,77.44-4.2.64.07,1.36.19,2.02.27-5.38,1.82-10.73,3.74-16.02,5.86-31.51,12.6-75.17,46.39-67.13,84.86,1.98-11.44,5.38-22.46,14.15-30.78,6.13-5.8,12.8-10.93,19.96-15.17,22.47-17.17,55.23-21.49,84.44-30.4,23.09-7.05,45.27-17.8,65.4-31.28-2.18,2.16-4.41,4.31-6.72,6.43-20.75,19.06-45.05,34.65-67.93,51.01-24.22,17.33-38.59,38.36-44.11,65.21,7.98-13.4,18.88-25.54,31-36.07,8.68-9.37,18.81-17.63,29.51-25.38-1.52,4.09-2.93,8.21-4.5,12.15-6.87,17.17-15.07,35.58-24.74,51.37-1.44,2.36,1.09,1.78,2.1.29,13.44-19.91,27.88-45.95,35.99-70.05,10.86-7.42,22.1-14.46,33.03-21.62,13.25-8.67,24.63-19.73,34.69-32.02.48,11.67,2.86,23.29,5.01,35.17.67,3.67,1.2,7.5,1.65,11.4-5.5,18.09-11.02,36.8-19.91,53.49-.96,1.8.82,1.37,1.53.22,6-9.66,10.32-20.97,15.19-31.3,1.47-3.1,2.86-6.51,4.16-10.01,1.13,22.49-1.19,46.99-7.3,67.91,2.77-4.09,5.39-8.29,7.89-12.58,1.78-5.83,3.31-11.76,4.42-17.85,1.22-8.48,2.09-17,2.96-25.4,3.02-29.1-5.11-57.11-4.56-85.78,5.81-8.35,11.19-16.97,16.17-25.65,5.76-6.54,10.75-13.45,14.92-20.76,2.31,9.57,5.87,18.88,7.37,24.11,2.38,8.3,5.94,16.96,9.83,25.46-1.81,10.38-2.82,21.1-3.2,31.87-6.44,12.94-14.86,24.67-19.45,38.78-6.89,21.16-8.96,41.3-4.87,63.27.19,1.06,2.7-1.18,2.56-2.16-3.91-26.03,2.71-49.85,12.42-73.84,2.25-5.56,5.76-10.67,9.17-15.83.03,3.26.04,6.5.19,9.74,2.64,9.61,5.92,18.96,9.6,28.2-1.3-20.24.67-40.5,3.01-60.73.29.58.6,1.21.9,1.79,3.87,7.58,6.81,15.46,9.62,23.39,10.86,37.86,15.97,75.3,18.12,116.09,4.67-10.38,8.31-21.44,10.78-32.92,1-15.01,1.85-30.03,1.35-45.06,3.1,6.06,6.3,12.11,8.67,18.24,6.57,17.12,9.11,33.48,11.75,51.47.25,1.7,2.94-.91,2.81-2.04-3.78-30.75-7.38-63.39-26.02-89.37-3.12-15.35-8.04-30.49-11.04-45.65-3.06-15.38-9.43-29.66-15.4-44.06,11.66,13.82,25.79,26.09,40.09,38.27.48,2.42,1.15,4.86,1.41,7.36.89,8.29,2.52,17.75,1.07,26.02-.36,2.05,2.38-.23,2.58-1.28,1.26-6.15,1.12-12.61.97-18.87-.07-2.8-.26-5.62-.41-8.43.2.17.41.34.61.52,4.06,3.47,8.15,6.89,12.23,10.32,3.93,8.94,7.91,17.82,12,26.67,3.58,31.36,1,64.24,19.17,91.95.87,1.33,3.64-1.77,2.99-2.88-10.29-17.57-14-41.62-15.61-61.49-.33-4.08-.1-8.78.08-13.63,3.23,6.63,6.53,13.23,10.02,19.74,4.48,5.08,9.41,9.76,14.52,14.25-6.94-13.94-12.98-28.37-18.89-42.75-2.17-5.3-4.06-10.73-6.06-16.09,9.28,8.31,18.19,16.99,26.3,26.63,12.15,14.42,23.64,27.92,33.6,44.16,6.43,10.5,8.96,22.71,15.9,33.26-7.4-19.51-13.86-39.39-21.99-58.5,7.05,3.84,14.43,7.19,21.23,10.66,12.93,6.61,22.75,17.29,33.29,26.99.59.55,2.13-1.33,1.58-1.97-9.93-11.2-18.51-21.45-31.44-29.34-8.98-5.49-19.26-11.95-29.45-16.73-1.12-2.37-2.11-4.8-3.3-7.14-12.17-18.23-26.6-34.02-42.41-49.35-9.44-9.16-19.7-17.65-29.68-26.36,17.17,10.04,34.07,20.3,50.99,31.18,15.32,9.88,31.56,17.02,47.41,25.33,2.54,3.47,5.25,6.81,7.92,10.07,7.24,8.83,13.57,18.21,19.57,27.93.67,1.08,2.91-1.4,2.4-2.32-5.71-10.07-11.91-19.88-18.53-29.41.66.39,1.33.75,1.98,1.13,19.05,11.43,33.96,28.63,48.61,45.37Z"/>
      <path class="cls-19" d="m726.96,313.15c.24-2.61.42-5.2.53-7.8-28.64,47.04-89.14,73.43-138.82,88.33-26.86,8.06-87.55,26.7-101.74,58.33-2.39,7.58-3.16,15.51-1.49,23.69,0,.06.04.11.06.18,1.98-11.39,5.38-22.37,14.12-30.66,6.13-5.8,12.8-10.93,19.96-15.17,22.47-17.17,55.23-21.49,84.44-30.39,23.09-7.05,45.27-17.8,65.4-31.28-2.18,2.16-4.41,4.31-6.72,6.43-20.75,19.06-45.05,34.65-67.93,51.01-24.22,17.33-38.59,38.36-44.11,65.21,7.98-13.4,18.88-25.54,31-36.07,8.68-9.37,18.81-17.63,29.51-25.38-1.52,4.09-2.93,8.21-4.5,12.15-6.87,17.17-15.07,35.58-24.74,51.37-1.44,2.36,1.09,1.78,2.1.29,13.44-19.91,27.88-45.95,35.99-70.05,10.86-7.42,22.1-14.46,33.03-21.62,13.25-8.67,24.63-19.74,34.69-32.03.48,11.67,2.86,23.29,5.01,35.17.67,3.68,1.2,7.5,1.65,11.4-5.5,18.09-11.02,36.8-19.91,53.49-.96,1.8.82,1.37,1.53.22,6-9.66,10.32-20.97,15.19-31.3,1.47-3.1,2.86-6.51,4.16-10.01,1.13,22.49-1.19,46.99-7.3,67.91,2.77-4.09,5.39-8.29,7.89-12.58,1.78-5.83,3.31-11.76,4.42-17.85,1.22-8.48,2.09-17,2.96-25.4,3.02-29.1-5.11-57.11-4.56-85.78,5.81-8.35,11.19-16.97,16.17-25.65,4.53-5.14,8.44-10.58,11.99-16.19Z"/>
    </g>
    <path class="cls-19" d="m783.44,373.4c-3.06-15.38-9.43-29.66-15.4-44.06,1.77,2.11,3.71,4.1,5.56,6.14-5.04-9.04-10.93-17.52-17.99-25.29,2.94,40.38,20.64,77.92,26.82,117.91,4.34,28.08,5.9,55.91,2.29,83.7.14,2.33.3,4.6.43,6.93,4.67-10.38,8.31-21.44,10.78-32.92,1-15.01,1.85-30.03,1.35-45.06,3.1,6.06,6.3,12.11,8.67,18.24,6.57,17.12,9.11,33.48,11.75,51.47.25,1.7,2.94-.91,2.81-2.04-3.78-30.75-7.38-63.39-26.02-89.37-3.12-15.35-8.04-30.49-11.04-45.65Z"/>
  </g>
  <g>
    <path class="cls-1" d="m890.51,137.36c-1.51-10.95-5.1-21.26-8.55-31.66-2.24-6.76-5.38-13.27-5.76-20.61-.14-2.62-1.7-4.89-3.57-6.9-2.63-2.82-6.15-3.49-9.59-4.42-5.39-3.47-9.73-8.07-13.93-12.83-6.7-7.61-12.96-15.6-20.11-22.81-5.55-5.61-11.74-9.92-20.06-10.17-6.78-.21-13.46.68-20.15,1.63-8.8,1.24-17.57,1.89-26.37-.23-6.66-1.6-13.16-3.74-19.77-5.49-7.04-1.87-14.09-3.64-21.49-2.53-8.81,1.33-15.8,6.17-22.5,11.59-6.23,5.05-12.21,10.43-19.4,14.16-9.8,5.06-18.77,11.47-28,17.46-5.02,2.48-9.76,5.56-15.15,7.29-1.13-.01-1.94-.75-2.85-1.25-7.44-4.12-16.14.25-17.55,8.64-.66,3.93.12,7.57,1.51,11.11,2.2,5.61,1.95,10.9-.39,16.53-5.59,13.44-8.59,27.58-9.15,42.11-.92,23.94,5.24,46.15,17.66,66.58,4.49,7.38,9.39,14.52,15.82,20.43-.04,1.09.75,1.71,1.43,2.35,3.45,3.25,6.76,6.67,10.41,9.68,14.69,12.12,31.03,21.29,49.23,27.07,1.09.34,2.41.62,3.12,1.39,4.55,4.9,8.72,9.99,8.76,17.25,0,.9.11,1.79.3,2.66h65.31c.11-.38.19-.76.26-1.15.31-1.75.4-3.54.73-5.29,1.01-5.34,3.38-9.81,8.65-12.01,4.37-1.82,8.83-3.42,13.28-5.02,11.85-4.27,23.11-9.64,33.2-17.29,21.34-14.81,37.31-34.04,47.09-58.16,7.83-19.32,10.43-39.36,7.58-60.11Z"/>
    <path class="cls-7" d="m863.04,73.77c3.44.93,6.96,1.61,9.59,4.43,1.87,2,3.43,4.28,3.57,6.9.39,7.33,3.52,13.85,5.77,20.61,3.45,10.4,7.04,20.71,8.54,31.66,2.85,20.75.25,40.79-7.58,60.11-9.78,24.12-25.75,43.35-47.09,58.17-.04-1.16.13-2.29.37-3.44,2.85-13.73,5.14-27.52,4.55-41.63.82-.46,1.61-1.01,2.47-1.38,7.37-3.21,14.49-6.88,21.34-11.08,4.68-2.87,9.37-5.78,12.79-10.2,1.83-2.36,1.43-5.39-.63-7.1-2.16-1.79-4.59-1.71-6.81.47-7.91,7.79-17.86,12.26-27.58,17.1-.69.34-1.59,1.1-2.33.51-.84-.67-.04-1.56.22-2.31,3-8.67,5.63-17.45,7.12-26.53.26-1.61,1.13-2.48,2.68-3.11,7.16-2.88,14.06-6.32,20.4-10.76,6.63-4.64,12.67-9.87,16.23-17.37,1.43-3.01.58-5.95-1.88-7.12-2.78-1.32-5.52-.34-7.2,2.56-.68,1.19-1.31,2.42-2.13,3.51-6.1,8.1-14.64,12.89-23.5,17.24-2.19,1.07-2.3-.27-2.2-1.86.56-8.53.72-17.06.05-25.59-.57-7.25-1.4-14.46-3.05-21.55-.74-3.17-3.27-4.95-5.91-4.34-2.9.67-4.55,3.33-3.89,6.56,1.93,9.42,2.9,18.97,3.14,28.54.25,10.11-.8,20.2-2.39,30.2-.29,1.85-1.03,2.02-2.52.9-9.53-7.18-18.75-14.77-27.21-23.16-4.97-4.93-10.2-9.83-12.62-16.82-.88-2.55-3.88-3.61-6.35-2.77-2.27.77-3.85,3.74-3.06,6.25.63,2,1.44,3.95,2.6,5.75,3.24,4.98,7.05,9.46,11.22,13.69,10.03,10.19,21.13,19.1,32.57,27.6,1.62,1.2,2.38,2.31,1.64,4.43-2.82,8.14-4.86,16.55-10.18,23.71-1.97,2.66-2.99,2.71-5.48.86-12.43-9.28-24.8-18.65-36.31-29.04-7.84-7.08-16.53-13.56-20.69-23.96-.87-2.17-3.1-3.24-5.58-2.51-2.38.7-3.65,2.4-3.65,4.95,0,2.54,1.11,4.71,2.4,6.77,2.24,3.59,4.96,6.84,7.87,9.89,14.85,15.57,31.88,28.56,49.05,41.39,1.55,1.16,3.67,1.77,4.26,3.97-14.95,17.6-34.57,27.5-56.09,34.46-7.92,2.56-16.03,4.29-24,6.62-1.22.13-1.6-.77-2.04-1.63-2.8-5.42-5.51-10.88-7.71-16.58-4.58-11.9-7.86-24.12-9.22-36.81-.12-1.09-.65-1.75-1.64-2.08-2.98-.99-5.84-2.41-9.07-2.5-11.17-3.4-22.5-4.14-33.99-1.99-7.83,1.47-14.86,4.62-20.64,10.24-2.06-3.58-3.16-7.52-4.48-11.4-.66-1.95-.17-3.34.9-4.95,6.74-10.11,12.93-20.53,17.56-31.8,1.68-4.1,3.09-8.3,3.71-12.71.49-3.46-1.38-6.14-4.41-6.58-2.77-.41-5.07,1.67-5.66,5.1-.07.42-.09.84-.19,1.25-2.8,11.78-8.87,22.03-15.08,32.22-.11.18-.53.16-1.08.31-.59-4.28-1.28-8.41-1.71-12.57-.96-9.45-1.34-18.9-.6-28.4.41-5.25,1.1-10.47,1.49-15.71.22-3.01-1.64-5.11-4.21-5.36-3.06-.3-5.44,1.44-5.83,4.49-1.01,7.94-1.89,15.89-1.95,23.91-.04,5.49.16,10.95.56,16.43.87,11.69,2.87,23.17,5.93,34.46,2.01,7.44,4.94,14.55,8.09,21.57-2.9,5.37-3.46,11.18-3.18,17.14-6.43-5.91-11.33-13.04-15.82-20.43-12.42-20.43-18.58-42.64-17.66-66.59.56-14.53,3.56-28.66,9.15-42.11,2.34-5.63,2.59-10.92.39-16.53-1.38-3.54-2.17-7.17-1.51-11.11,1.41-8.39,10.11-12.76,17.55-8.64.91.51,1.72,1.25,2.86,1.26.2.47.27,1.08.61,1.4,6.1,5.72,10.63,12.75,15.95,19.12,3.45,4.12,7.63,7.3,13.35,9.16-.44-.89-.58-1.27-.79-1.6-6.83-10.93-10.92-22.94-13.97-35.37,9.22-6,18.19-12.4,28-17.46,1.21,1.01,2.72.71,3.95.46,4.62-.94,9.26-.46,13.88-.54,5.24-.09,7.22,1.41,8.83,6.33,2.09,6.4,5.35,8.43,12.1,7.56,11.2-1.45,17.6,1.97,22.95,11.8,1.57,2.87,2.56,6.27,5.86,8.03,1.73.92,3.67.93,5.49,1.75-5.54,1.86-10.71,4.55-16.4,5.65-3.72.72-7.5,1.04-11.31.55-9.5-1.23-18.66-4.03-28-5.95-6.09-1.25-12.27-1.95-17.55,2.27-4.95,3.96-8.07,9.36-10.7,15.07-.96,2.09-.13,3.03,1.68,3.9,3.63,1.76,7.09,3.92,9.47,7.23,4.39,6.1,7.92,12.72,10.05,19.96,4.28,14.5,9.98,28.43,16.89,41.85,2.61,5.07,5.29,10.15,9.05,15.6-.51-4.8.32-8.64.46-12.52.32-9.24,2-18.12,6.36-26.38,1.7-3.21,4.17-5.52,7.55-6.85,3.92-1.55,7.77-3.29,11.76-4.61,5.85-1.93,8.87-5.93,10-11.84.61-3.17,1.48-6.28,3.77-8.9,3.12-3.56,7.23-4.66,11.54-5.14,8.5-.95,15.72-3.94,21.2-10.89,3.06-3.88,6.98-6.93,11.49-9.26,4.09-2.12,6.77-5.6,7.59-10.32.36-2.07.87-4.11,1.42-6.14,1.15-4.26,3.41-7.64,7.63-9.5,2.51-1.11,4.91-2.45,7.38-3.65,4.53-2.19,8.95-1.98,13.1.89,3.29,2.27,6.6,4.54,9.63,7.14,5.02,4.3,10.72,4.14,16.65,3.14Z"/>
    <path class="cls-18" d="m849.11,60.94c-6.7-7.61-12.96-15.6-20.11-22.81-5.55-5.61-11.74-9.92-20.06-10.17-6.78-.21-13.46.68-20.15,1.63-8.8,1.24-17.57,1.89-26.37-.23-6.66-1.6-13.16-3.74-19.77-5.49-7.04-1.87-14.09-3.64-21.49-2.53-8.81,1.33-15.8,6.17-22.5,11.59-6.23,5.05-12.21,10.43-19.4,14.16,1.21,1.01,2.72.71,3.95.46,4.62-.95,9.26-.46,13.88-.55,5.24-.09,7.23,1.41,8.84,6.34,2.09,6.4,5.35,8.43,12.1,7.56,11.2-1.44,17.59,1.97,22.94,11.8,1.57,2.88,2.56,6.27,5.87,8.03,1.73.92,3.67.93,5.49,1.75-5.55,1.85-10.72,4.54-16.4,5.65-3.72.72-7.5,1.03-11.31.54-9.5-1.23-18.65-4.03-28-5.95-6.09-1.25-12.27-1.95-17.56,2.27-4.95,3.96-8.07,9.37-10.7,15.08-.96,2.09-.13,3.02,1.68,3.9,3.63,1.76,7.09,3.92,9.47,7.22,4.39,6.11,7.92,12.73,10.05,19.96,4.28,14.51,9.98,28.43,16.89,41.85,2.62,5.08,5.29,10.16,9.06,15.6-.51-4.8.32-8.64.46-12.52.31-9.24,1.99-18.12,6.36-26.38,1.7-3.22,4.17-5.52,7.55-6.86,3.92-1.54,7.77-3.29,11.76-4.6,5.85-1.93,8.87-5.93,10-11.84.6-3.17,1.48-6.28,3.77-8.9,3.12-3.56,7.23-4.65,11.54-5.14,8.5-.94,15.72-3.94,21.2-10.89,3.06-3.88,6.99-6.92,11.49-9.26,4.09-2.12,6.77-5.59,7.59-10.32.36-2.07.87-4.11,1.42-6.14,1.15-4.27,3.4-7.64,7.62-9.5,2.51-1.11,4.92-2.45,7.39-3.65,4.53-2.19,8.95-1.98,13.1.89,3.29,2.27,6.6,4.54,9.62,7.13,5.02,4.31,10.72,4.14,16.66,3.15-5.39-3.47-9.73-8.07-13.93-12.83Zm-82.18,43.16c-2.82.32-5.56-.36-8.41-.23-8.79.38-15.21,5.01-21.36,10.43-8.24,7.26-15.66,15.27-21.96,24.28-.96,1.38-2.26,2.39-3.96,2.17-1.75-.23-2.97-1.23-3.62-3.08-4.05-11.67-9.24-22.83-15.11-33.7-2.66-4.92-.17-8.81,6.45-8.79,3.71.62,8.46,1.45,13.21,2.22,12.4,1.99,24.59,2.73,36.33-3.44,5.26-2.76,11.29-2.28,17.07-1.74,2.7.25,4.52,2.25,5.7,4.57,1.71,3.37-.53,6.87-4.34,7.31Zm49.71-50.18c-10.67,1.77-19.29,6.47-24.45,16.35-1.85,3.55-3.38,7.27-5.14,10.87-2.18,4.43-3.45,4.72-7.95,2.54-2.65-1.29-4.09-3.93-6.6-5.36-1.75-1-3.37-2.01-5.47-2.26-3.2-.37-5.38-2.75-7.79-4.57-10.82-8.18-21.49-16.55-32.39-24.6-6.34-4.69-13.75-6.15-21.66-5.79,4.39-3.48,9.3-5.68,14.77-6.81,7.93-1.65,15.43.45,22.96,2.37,7.94,2.04,15.65,4.86,23.77,6.24,5.66.96,11.27.62,16.9.05,8.56-.87,17.02-2.83,25.7-2.29,5.85.37,11.19,2.26,15.4,6.39,2.13,2.09,5.16,3.38,6.44,7.09-5.1-.87-9.76-1.01-14.49-.22Z"/>
    <path class="cls-15" d="m836.2,252.2c-.24,1.15-.4,2.27-.36,3.43-10.09,7.65-21.35,13.02-33.2,17.29-4.45,1.6-8.91,3.2-13.28,5.02-5.27,2.2-7.64,6.67-8.65,12.01-.33,1.75-.42,3.54-.73,5.29-.07.39-.15.77-.26,1.15h-65.31c-.19-.87-.3-1.76-.3-2.66-.04-7.26-4.21-12.35-8.76-17.25-.71-.77-2.03-1.05-3.12-1.39-18.2-5.78-34.54-14.95-49.23-27.07-3.65-3.01-6.96-6.43-10.41-9.68-.68-.64-1.47-1.26-1.43-2.35-.28-5.96.28-11.77,3.18-17.14,1.14,1.88,2.3,3.74,3.43,5.63,10.06,16.79,23.7,29.89,40.75,39.46,2.67,1.5,5.55.56,6.94-2.13,1.53-2.95,1.01-4.75-2.61-6.95-11.33-6.87-21.51-15.01-29.61-25.62-4.87-6.39-9.11-13.1-11.96-20.65,5.78-5.63,12.82-8.78,20.64-10.24,8.81-1.66,17.53-1.6,26.15.04.87.17,1.74.35,2.61.55h.01c.87.21,1.74.42,2.61.65.44.12.87.24,1.31.36.43.13.87.26,1.3.39-.37,2.38-2.16,4.07-3.07,6.19-4.14,9.67-4.95,19.76-3.19,29.99,1.98,11.54,6.32,22.23,13.01,31.89,1.73,2.5,3.35,5.18,5.52,7.25,1.1,1.06-.8,1.88.26,2.11,1.83.41,3.73.47,5.6.69,6.55.79,13.1,1.61,19.65,2.36,4.7.55,9.4,1.01,14.1,1.51-6.89-3.55-12.54-8.33-17.39-14.07-2.08-2.47-4.43-4.85-4.82-8.32,7.96-2.33,16.08-4.06,23.99-6.62,21.52-6.95,41.15-16.86,56.09-34.46,3.47.33,1.29,2.28.72,3.24-3.86,6.52-8.34,12.62-13.26,18.38-1.9,2.21-2.22,4.61-.42,6.91,1.72,2.18,4.09,2.54,6.52,1.21.99-.55,1.88-1.4,2.58-2.3,5.73-7.4,11.39-14.86,15.84-23.13,3.03-5.64,5.63-11.64,13.12-12.6.58,14.1-1.7,27.9-4.56,41.63Z"/>
    <path class="cls-18" d="m651.26,64.55c3.05,12.42,7.14,24.44,13.97,35.37.21.33.35.71.79,1.6-5.73-1.86-9.91-5.04-13.35-9.16-5.32-6.37-9.85-13.39-15.95-19.12-.34-.32-.41-.93-.61-1.4,5.38-1.74,10.12-4.81,15.15-7.29Z"/>
    <path class="cls-22" d="m840.75,210.57c-7.49.96-10.09,6.96-13.12,12.61-4.44,8.27-10.11,15.73-15.84,23.13-.7.9-1.59,1.75-2.58,2.3-2.43,1.34-4.8.98-6.52-1.21-1.8-2.3-1.48-4.69.41-6.91,4.93-5.76,9.4-11.86,13.27-18.38.57-.95,2.75-2.91-.72-3.23-.59-2.2-2.71-2.82-4.26-3.97-17.17-12.83-34.2-25.82-49.05-41.39-2.91-3.05-5.63-6.3-7.87-9.89-1.29-2.06-2.4-4.23-2.4-6.77,0-2.55,1.27-4.25,3.65-4.95,2.48-.73,4.71.34,5.58,2.51,4.16,10.39,12.85,16.87,20.69,23.96,11.51,10.39,23.88,19.76,36.31,29.04,2.48,1.85,3.5,1.8,5.48-.86,5.32-7.15,7.36-15.56,10.18-23.71.74-2.12-.02-3.23-1.64-4.43-11.44-8.51-22.54-17.42-32.57-27.6-4.16-4.23-7.98-8.71-11.22-13.69-1.17-1.8-1.98-3.75-2.6-5.75-.79-2.51.79-5.48,3.06-6.25,2.47-.84,5.47.22,6.35,2.77,2.42,6.99,7.65,11.9,12.62,16.82,8.47,8.39,17.68,15.98,27.21,23.16,1.49,1.12,2.22.95,2.52-.9,1.59-10.01,2.64-20.09,2.39-30.2-.24-9.57-1.21-19.12-3.14-28.54-.66-3.23.99-5.88,3.89-6.56,2.63-.61,5.17,1.17,5.91,4.34,1.65,7.09,2.48,14.3,3.05,21.55.67,8.53.51,17.06-.05,25.59-.1,1.59.01,2.93,2.2,1.86,8.86-4.35,17.4-9.14,23.5-17.24.82-1.09,1.45-2.32,2.13-3.51,1.68-2.9,4.42-3.89,7.2-2.56,2.46,1.17,3.31,4.11,1.88,7.12-3.55,7.51-9.6,12.73-16.23,17.37-6.34,4.44-13.23,7.88-20.4,10.76-1.55.62-2.42,1.5-2.68,3.11-1.49,9.08-4.12,17.85-7.12,26.53-.26.75-1.06,1.64-.22,2.31.74.59,1.64-.17,2.33-.51,9.73-4.84,19.67-9.31,27.58-17.1,2.22-2.18,4.64-2.26,6.81-.47,2.06,1.7,2.46,4.73.63,7.1-3.42,4.42-8.11,7.33-12.79,10.2-6.85,4.2-13.97,7.87-21.34,11.08-.86.37-1.65.92-2.47,1.38Z"/>
    <path class="cls-22" d="m651.28,208.59c2.84,7.55,7.08,14.26,11.96,20.65,8.1,10.61,18.27,18.75,29.6,25.62,3.62,2.2,4.15,4,2.62,6.96-1.39,2.69-4.27,3.62-6.94,2.12-17.05-9.57-30.69-22.66-40.75-39.46-1.13-1.89-2.29-3.75-3.43-5.63-3.14-7.02-6.08-14.14-8.09-21.57-3.05-11.29-5.05-22.78-5.93-34.46-.41-5.48-.6-10.94-.56-16.43.05-8.02.94-15.97,1.95-23.91.39-3.05,2.77-4.8,5.83-4.49,2.57.25,4.43,2.35,4.21,5.36-.39,5.24-1.08,10.46-1.49,15.71-.75,9.51-.36,18.96.6,28.4.42,4.16,1.12,8.29,1.71,12.57.55-.15.97-.14,1.08-.31,6.21-10.18,12.28-20.44,15.08-32.22.1-.41.12-.83.19-1.25.59-3.43,2.89-5.51,5.66-5.1,3.03.44,4.9,3.12,4.41,6.58-.62,4.41-2.03,8.61-3.71,12.71-4.63,11.27-10.82,21.7-17.56,31.8-1.07,1.6-1.56,2.99-.9,4.95,1.32,3.87,2.42,7.82,4.48,11.4Z"/>
    <path class="cls-11" d="m735.57,259.94c.39,3.47,2.75,5.86,4.82,8.32,4.85,5.75,10.5,10.53,17.39,14.07-4.7-.5-9.4-.96-14.09-1.5-6.55-.76-13.1-1.58-19.65-2.36-1.87-.22-3.78-.29-5.61-.69-1.06-.23.85-1.05-.26-2.11-2.17-2.07-3.78-4.75-5.52-7.26-6.69-9.66-11.03-20.35-13.01-31.88-1.76-10.23-.95-20.32,3.19-29.99.91-2.12,2.69-3.81,3.07-6.2,3.23.08,6.09,1.5,9.07,2.49.98.33,1.52.99,1.64,2.08,1.36,12.7,4.63,24.92,9.22,36.81,2.2,5.71,4.91,11.16,7.71,16.58.44.85.82,1.76,2.04,1.63Z"/>
    <path class="cls-7" d="m831.12,54.15c-5.09-.87-9.76-1.01-14.48-.23-10.67,1.77-19.3,6.48-24.45,16.36-1.85,3.55-3.38,7.27-5.14,10.86-2.18,4.43-3.45,4.72-7.95,2.54-2.65-1.29-4.09-3.93-6.6-5.36-1.75-1-3.37-2.01-5.47-2.25-3.2-.37-5.38-2.75-7.79-4.57-10.81-8.18-21.49-16.55-32.39-24.6-6.34-4.68-13.74-6.15-21.65-5.79,4.39-3.48,9.3-5.67,14.77-6.81,7.93-1.65,15.43.45,22.96,2.38,7.93,2.03,15.65,4.86,23.77,6.23,5.66.96,11.27.62,16.9.05,8.56-.87,17.02-2.83,25.7-2.29,5.85.37,11.19,2.25,15.41,6.39,2.12,2.09,5.16,3.38,6.43,7.09Z"/>
    <path class="cls-7" d="m698.95,95.18c3.71.62,8.46,1.45,13.22,2.22,12.4,1.99,24.59,2.73,36.32-3.44,5.26-2.76,11.29-2.28,17.08-1.74,2.7.25,4.51,2.25,5.7,4.57,1.71,3.37-.52,6.87-4.34,7.3-2.82.32-5.56-.36-8.42-.23-8.78.38-15.21,5.02-21.36,10.44-8.24,7.26-15.66,15.27-21.96,24.28-.96,1.37-2.26,2.39-3.96,2.17-1.74-.23-2.97-1.22-3.62-3.08-4.05-11.67-9.25-22.83-15.11-33.7-2.65-4.92-.17-8.81,6.45-8.79Z"/>
  </g>
  <g>
    <g>
      <circle class="cls-3" cx="211.39" cy="222.41" r="187.84"/>
      <polygon class="cls-3" points="535.52 410.8 216.96 409.88 377.04 134.46 535.52 410.8"/>
    </g>
    <g>
      <circle class="cls-3" cx="211.39" cy="222.41" r="187.84"/>
      <polygon class="cls-3" points="535.52 410.8 216.96 409.88 377.04 134.46 535.52 410.8"/>
    </g>
  </g>
  <g>
    <circle class="cls-13" cx="209.94" cy="221.57" r="167.8"/>
    <path class="cls-21" d="m152.51,221.62c-10.02,1.04-19.79,5.79-19.19,17.35.47,9,7.06,17.86,15.95,20,10.43,2.51,23.9-3.99,23.8-15.76-.09-11.33-9.88-20.03-20.56-21.59Z"/>
    <path class="cls-21" d="m253.02,104.05c-5.77-2.34-12.11-3.59-18.31-4.08-4.35-.35-12.64-.86-14.89,3.96-.93,1.99-2.46,3.1-4.13,3.51-7.27,12.35-7.01,27.04,1.3,39.44,7.93,11.83,21.01,19.9,35.3,20.84,16,1.05,32.03-10.79,32.9-27.48.88-16.84-18.25-30.53-32.18-36.19Z"/>
    <path class="cls-21" d="m108.1,133.67c7.06-14.07,4.25-30.02-6.05-40.64-15.65,13.16-28.78,29.08-38.72,46.89,14.78,4.18,36.09,11.03,44.77-6.26Z"/>
    <path class="cls-21" d="m359.49,250.65c-1.12-10.36,9.23-14.13,17.71-15.42.71-8.78.74-17.72.03-26.75-23.08,6.19-41.79,20.72-58.36,38.34-7.31,7.77-12.77,18.24-21.29,24.73-9.77,7.45-23.28,7.22-34.99,7.26-13.91.05-26.21,1.02-38.33,8.51-11.1,6.85-21.46,14.81-32.97,20.99-9.96,5.34-21.79,9.97-33.26,7.78-11.23-2.15-20.99-8.65-30.42-14.77-9.9-6.42-20.45-11.82-32.58-11.51-11.94.31-22.21,7.26-33.72,9.74,10.86,20.7,25.86,38.68,43.77,53.01.64-.83,1.57-1.52,2.87-1.95,14.6-4.86,32.98-12.73,47.61-3.86,12.88,7.8,17.1,24.37,18.61,38.8,18.51,4.04,38.01,5,57.87,2.37,68.11-9.05,121.21-57.75,139.15-119.78-5.42-4.73-10.94-10.55-11.69-17.48Zm-74.09,97.58c-8.58,7.14-21.81,6.61-31.01,1-8.08-4.93-14.16-14.25-13.34-23.99.94-11.12,10.56-17.02,20.77-18.33,1.81-.23,3.29.2,4.43,1.03,10.46-.57,20.5,4.48,24.68,14.75,3.54,8.68,1.85,19.38-5.55,25.54Z"/>
  </g>
  <g class="cls-25">
    <g>
      <path class="cls-14" d="m356.42,105.79c-3.06,3.14-6.8,5.21-10.78,6.9-.52-1.19-1.37-2.26-2.6-3.03-2.14-1.34-4.28-2.67-6.41-4.01-.51-.96-1.09-1.91-1.75-2.86,6.32-10-5.52-14.73-18.73-16.54-5.67-3.63-11.17-6.46-14.84-8.08-.05-.02-.11-.04-.16-.06,4.89-10.94,13.53-20.14,24.22-25.88.47-.25.88-.54,1.24-.85,6.13-1.75,12.51-2.74,18.79-3.67,8.09-1.19,7.67-14.03-.51-12.83-17.53,2.57-36.19,5.9-48.44,19.96-5.98,6.87-10.44,15.13-15.26,22.82-4.93,7.88-9.36,18.59-18.91,21.52-20.08,6.15-43.05.75-63.56.32-18.64-.39-37.97,2.41-53.38,13.62-1.82,1.33-2.6,3.39-2.59,5.44,11.56-1.01,23.57-.08,35-.51,1.16-.04,2.16.18,3.01.58,1.56.08,3.12.2,4.68.41,4.49.61,9.38,1.62,13.12,4.33,2.65,1.92,3.32,4.02,3.62,6.34.26,1.4.11,2.85-.59,4.05-4.12,7.14-12.16,10.34-19.91,12.03-.66.3-1.32.6-1.98.89-8.1,3.6-16.37,6.65-25.13,8.14-8.77,1.49-17.5,2.51-26.25,3.24-2.91,2.48-5.6,5.22-8.42,7.93-.18.17-.38.33-.58.48.33-.06.66-.13.99-.19-1.43,1.65-2.8,3.35-4.14,5.08-.37.72-.86,1.38-1.45,1.94-1.04,1.41-2.05,2.83-3.03,4.29-.94,1.4-1.11,2.86-.77,4.21,4.38-3.99,9.1-7.57,14.49-10.25,10.43-5.19,21.83-4.75,33.14-5.08,3.56-.6,7.11-1.19,10.49-2.09,13.87-3.72,27.18-9.37,39.58-16.59.26-.02.51-.04.77-.06,1.95-.15,3.91-.3,5.86-.45,2,.91,3.93,1.9,5.26,3.4,3.51,3.97.66,10.08-1.25,14.08-2.28,4.77-4.76,9.29-6.4,14.32-7.25,7.28-14.5,14.56-21.75,21.84-10.12,10.16-21.27,19.93-29.77,31.54-.79,1.07-1.19,2.21-1.3,3.32-.05,0-.09,0-.14,0-1.25.14-2.49.3-3.74.45-4.01,1.73-8.21,2.1-12.63,3.03-6.25,1.31-12.44,2.6-18.8,3.34-11.51,1.34-23.11,1.49-34.69,1.82,7.21,6.58,20.25,7.16,29.23,7.63,8.19.43,16.45-.32,24.68-1.33-.08.06-.17.12-.25.18,4.34-.82,8.65-1.74,13.02-2.35,4.75-1.51,9.69-2.23,14.45-3.69,2.71-1.43,5.44-2.78,8.14-4.01.78-.35,1.51-.53,2.2-.58,5.09-3.68,10.1-7.46,14.93-11.42,5.51-4.52,10.68-9.52,15.04-15.08,1.42,9.18,3.67,18.31,5.42,27.16,2.06,10.4,3.74,21.39,2.11,31.97-1.62,10.59-6.4,20.33-12.79,28.86-6.98,9.32-15.6,17.08-24.38,24.65-8.4,7.25-16.36,16.08-15.45,27.91.15,1.99,1.03,3.45,2.24,4.44,4.91-11.64,13.93-21.67,25.65-26.53.11-.04.21-.07.31-.11,1.55-1.25,3.02-2.45,4.3-3.61,8.47-7.73,16.22-16.29,22.32-26.03,8.42-13.43,11.17-27.6,10.75-42.25.61-.76,1.02-1.77,1.14-3.06,1.12-11.61,2.25-23.51,4.77-35.01.24-2.99.79-5.97,1.72-8.81.55-1.68,1.19-3.15,2.17-4.58.01-.23.03-.45.04-.68,1.79-5.05,3.99-9.96,6.75-14.66,7.59-12.93,20.42-20.17,30.8-30.13,1.15,7.21,1.12,14.57.82,21.96.05.26.08.53.12.79.38.75.63,1.62.68,2.63.57,11.59,2.41,23.07,2.89,34.66.07,1.7.12,3.43.12,5.16.32,1.32.59,2.64.81,3.97,1.54,3.14,4.8,5.76,6.91,8.24,3.07,3.62,5.05,7.22,5.74,11.86,2.47,2.45,5.24,4.6,8.25,6.43,2.13,1.29,4.87.87,6.82-.55-1.36-1.85-2.69-3.72-3.96-5.65-2.91-4.39-6.29-8.68-7.54-13.9-.12-.51-.21-1.03-.29-1.56-3.6-9.13-2.34-20.06-.84-30.45-.05-1.41-.07-2.82-.02-4.24.52-14.48,6.25-28.3,12.63-41.09,5.65-11.34,11.05-25.83,23.18-31.52,10.54-4.94,21.74-6.89,30.19-15.54,5.79-5.92-3.66-14.62-9.44-8.71Z"/>
      <path class="cls-14" d="m107.37,145.91c-.36.36-.68.76-.95,1.21.52.56.97,1.24,1.31,2.05,2.61,6.27,11.05,11.95,18.23,14.31,2.03-1.75,4.19-3.36,6.3-5.01-9.29-1.34-17.43-6.79-24.89-12.56Z"/>
      <path class="cls-14" d="m170.13,244c.22,5.24.45,10.49.54,15.74.03,1.89.43,3.61.94,5.28.09-.16.19-.3.26-.47.84-2.08,1.8-4.12,2.91-6.06,2.26-6.64,4.79-13.18,7.73-19.55-4.3,1.06-8.22,3.51-12.39,5.06Z"/>
      <path class="cls-14" d="m289.77,236.85c-1.25-1.28-2.61-1.85-3.92-1.91-3.03,8.74-8.01,16.41-11.77,24.82-3.51,7.85-4.88,16.44-6.15,24.94,7.21-12.55,14.34-24.36,28.04-31.34.96-.49,1.87-.72,2.72-.76.51-5.85-4.95-11.68-8.93-15.75Z"/>
    </g>
    <polygon class="cls-20" points="316.32 297.06 268.26 269.31 316.32 241.56 316.32 297.06"/>
    <polygon class="cls-20" points="146.98 170.4 77.02 179.22 104.36 114.23 146.98 170.4"/>
    <polygon class="cls-20" points="248 76.7 233.98 100.99 219.95 76.7 248 76.7"/>
    <polygon class="cls-20" points="247.38 366.56 219.53 371.38 229.28 344.85 247.38 366.56"/>
    <polygon class="cls-20" points="198.85 257.73 155.29 292.11 147.29 237.2 198.85 257.73"/>
    <g>
      <circle class="cls-8" cx="90.85" cy="164.89" r="13.76"/>
      <path class="cls-8" d="m97.33,172.14c-2.17,1.4-4.79,2.08-7.34,2.35-3.48.36-5.97-.39-8.81-2.35-.8-.55-1.57-.61-2.23-.35-1.09-1.86-1.74-4.02-1.84-6.32-.31-7.59,5.59-14,13.18-14.31,3.71-.15,7.14,1.18,9.71,3.46-.46.8-.52,1.81.15,2.83,3.28,4.93,2.29,11.42-2.82,14.7Z"/>
      <path class="cls-6" d="m84.27,157c-3.73.15-3.5,5.94.23,5.79s3.5-5.94-.23-5.79Z"/>
      <path class="cls-5" d="m100.49,155.06s.01.07.02.1c.11.19.21.4.26.62.04.19.08.38.14.57.07.21.11.43.13.66.01.03.02.07.04.12.06.19.1.38.14.58.03.14.05.27.07.41.05.19.1.38.15.57.19.77.37,1.57.45,2.36.03.3.04.61.03.91.48,3.1-.42,6.27-2.68,8.6-.45.69-1.04,1.25-1.73,1.65-4.38,4.49-12.48,3.45-18.28-.01,2.54,4.03,7.1,6.64,12.2,6.43,7.59-.32,13.49-6.72,13.18-14.32-.15-3.64-1.7-6.89-4.11-9.25Z"/>
    </g>
    <g>
      <circle class="cls-17" cx="306.54" cy="278.2" r="12.54"/>
      <path class="cls-17" d="m312.44,284.8c-1.98,1.27-4.36,1.9-6.69,2.14-3.17.33-5.44-.36-8.03-2.14-.73-.5-1.43-.56-2.03-.32-.99-1.7-1.59-3.66-1.68-5.76-.29-6.92,5.09-12.76,12.01-13.04,3.38-.14,6.51,1.07,8.85,3.16-.42.73-.48,1.65.14,2.58,2.99,4.49,2.09,10.4-2.57,13.4Z"/>
      <path class="cls-4" d="m300.54,271.01c-3.4.14-3.19,5.41.21,5.28s3.19-5.41-.21-5.28Z"/>
      <path class="cls-16" d="m315.32,269.24s.01.06.02.1c.1.17.19.36.23.57.04.18.07.35.13.52.06.19.1.4.12.6.01.03.02.06.03.11.05.18.09.35.13.53.02.12.04.25.07.37.05.17.09.35.13.52.17.7.34,1.43.41,2.15.03.28.03.55.03.83.43,2.83-.39,5.71-2.44,7.84-.41.63-.95,1.14-1.57,1.5-3.99,4.1-11.38,3.15-16.66-.01,2.31,3.68,6.47,6.05,11.12,5.86,6.92-.29,12.3-6.13,12.01-13.05-.14-3.32-1.55-6.28-3.75-8.43Z"/>
    </g>
    <g>
      <circle class="cls-2" cx="153.68" cy="286.29" r="19.13"/>
      <path class="cls-2" d="m162.68,296.36c-3.02,1.94-6.66,2.89-10.2,3.26-4.83.5-8.3-.55-12.25-3.27-1.11-.76-2.19-.85-3.1-.49-1.51-2.59-2.42-5.59-2.56-8.79-.44-10.55,7.77-19.47,18.32-19.9,5.16-.21,9.93,1.63,13.5,4.81-.64,1.11-.73,2.52.21,3.93,4.56,6.85,3.18,15.87-3.92,20.44Z"/>
      <path class="cls-12" d="m144.53,275.32c-5.18.21-4.87,8.26.32,8.05s4.87-8.26-.32-8.05Z"/>
      <path class="cls-10" d="m167.07,272.63s.02.1.03.15c.16.27.29.55.36.86.06.27.11.53.19.8.1.3.16.6.18.91.02.04.03.1.05.17.08.27.14.53.2.81.04.19.07.38.1.57.07.26.14.53.2.79.27,1.07.51,2.18.62,3.28.04.42.05.84.04,1.27.66,4.31-.59,8.71-3.73,11.96-.63.96-1.45,1.74-2.4,2.29-6.09,6.25-17.35,4.8-25.41-.02,3.53,5.61,9.87,9.23,16.97,8.94,10.55-.44,18.76-9.35,18.32-19.91-.21-5.06-2.37-9.58-5.72-12.86Z"/>
    </g>
    <path class="cls-14" d="m345.39,47.72c-6.27.92-12.65,1.92-18.78,3.67-.36.31-.76.6-1.24.85-10.69,5.74-19.34,14.94-24.22,25.88.05.02.1.05.16.07,3.68,1.61,9.17,4.44,14.85,8.07,10.36,1.42,19.89,4.64,20.44,10.8-10.81-1.6-22.58,18.91-26.63,25.68-9.18,15.3-15.59,32.33-18.94,49.85-3.58,18.69-4.27,38.1-3.35,57.07.38,8,2.67,17.47,7.62,24.08-13.25,7.02-20.27,18.64-27.36,30.98,1.27-8.49,2.65-17.08,6.15-24.93,3.76-8.41,8.75-16.09,11.77-24.83.19,0,.37.02.57.05-.65-.81-1.21-1.65-1.64-2.53-.22-1.33-.49-2.64-.8-3.96,0-1.73-.05-3.47-.12-5.16-.48-11.6-2.32-23.08-2.89-34.66-.05-1.01-.31-1.88-.68-2.63-.04-.26-.07-.52-.12-.78.3-7.39.32-14.75-.83-21.96-.53.51-1.06,1.01-1.61,1.5-.78-.96-1.96-1.67-3.55-1.97-18.3-3.39-33.28,19.89-39.92,34.02-3.89,8.25-6.62,17.11-7.77,26.16-1.35,10.61.14,21.14-.59,31.74-.73,10.63-3.51,22.52-7.89,32.27-4.19,9.34-10.74,18.01-16.88,26.16-6.42,8.51-13.81,15.26-21.97,22.05-6.04,5.04-10.99,10.86-12.83,18.16-.44-11.36,7.33-19.93,15.5-26.98,8.77-7.56,17.41-15.32,24.38-24.64,6.38-8.53,11.16-18.27,12.78-28.86,1.62-10.58-.05-21.56-2.11-31.97-1.56-7.84-3.49-15.91-4.89-24.04.29-4.3-1.03-8.3-6.2-9.17-3.73-.63-6.19,1.29-8.32,4.07-2.4,3.18-4.38,5.11-7.62,7.49-6.79,4.98-12.54,11.07-17.67,17.74-2.05,2.65-2.92,5.5-3.32,8.49-4.04,1.06-8.17,1.77-12.15,3.04-4.37.61-8.69,1.53-13.03,2.35.09-.05.18-.11.25-.18-8.22,1.01-16.48,1.78-24.67,1.33-8.98-.48-22.02-1.05-29.22-7.62,11.58-.33,23.18-.49,34.68-1.82,6.36-.74,12.55-2.03,18.81-3.34,4.42-.94,8.62-1.3,12.63-3.04,1.25-.15,2.51-.31,3.75-.45h.14c.11-1.12.51-2.25,1.29-3.32,8.49-11.61,19.64-21.37,29.78-31.55,7.24-7.28,14.49-14.55,21.75-21.83,1.64-5.04,4.12-9.56,6.39-14.33,1.81-3.81,4.5-9.54,1.7-13.5-.11-2.5-1.6-4.86-4.81-5.5-9.64-1.94-18.74.02-28.05,2.61-9.75,2.72-19.48,4.54-29.49,6.02-11.97,1.78-24.09,3.79-35.23,8.23.04-.03.06-.07.1-.09-6.54-2.73-13.41-7.82-15.71-13.38-.34-.81-.79-1.48-1.32-2.04.26-.45.58-.86.94-1.22,6.75,5.22,14.03,10.18,22.24,12.05,8.31-.72,16.61-1.69,24.95-3.12,8.77-1.49,17.04-4.54,25.13-8.14.66-.3,1.33-.59,1.98-.89,7.75-1.7,15.79-4.9,19.92-12.03.7-1.21.84-2.66.58-4.06-.3-2.31-.96-4.42-3.62-6.33-3.75-2.72-8.63-3.73-13.12-4.33-1.56-.22-3.12-.34-4.68-.42-.85-.4-1.85-.62-3-.57-11.43.43-23.45-.5-35,.51-.02-2.06.77-4.12,2.58-5.45,15.41-11.22,34.74-14.01,53.38-13.62,20.52.44,43.48,5.83,63.57-.32,9.55-2.93,13.98-13.64,18.91-21.51,4.82-7.7,9.28-15.96,15.27-22.82,12.24-14.06,30.91-17.39,48.42-19.97,8.19-1.2,8.61,11.65.51,12.83Z"/>
    <path class="cls-14" d="m365.85,114.5c-5.44,5.58-12.04,8.37-18.86,10.97,3.52-2.03,7.17-3.83,10.99-5.4,7.52-3.1,3.8-15.23-3.77-12.28.77-.61,1.5-1.28,2.21-2,5.78-5.91,15.23,2.78,9.43,8.71Z"/>
    <path class="cls-19" d="m357.97,120.07c-3.82,1.57-7.47,3.37-10.99,5.4-3.75,1.44-7.57,2.81-11.32,4.57-12.12,5.69-17.52,20.17-23.17,31.51-6.38,12.8-12.11,26.61-12.63,41.09-.05,1.43-.03,2.84.02,4.25-1.5,10.38-2.76,21.3.84,30.44.09.52.17,1.05.29,1.56,1.25,5.22,4.62,9.52,7.53,13.9,1.27,1.93,2.61,3.79,3.97,5.65-1.96,1.42-4.69,1.85-6.83.54-2.94-1.77-5.64-3.86-8.06-6.23-.54.11-1.08.31-1.65.61-.23.11-.45.24-.68.36-4.95-6.6-7.24-16.07-7.62-24.08-.93-18.97-.24-38.38,3.35-57.07,3.35-17.52,9.76-34.55,18.94-49.85,4.05-6.77,15.82-27.28,26.63-25.68.16,1.69-.36,3.6-1.72,5.75.67.94,1.25,1.89,1.75,2.85,2.15,1.34,4.28,2.68,6.42,4.01,1.23.77,2.08,1.84,2.6,3.04,3.07-1.31,5.99-2.84,8.57-4.91,7.57-2.95,11.29,9.17,3.77,12.28Z"/>
    <path class="cls-19" d="m334.87,102.8c1.37-2.15,1.88-4.06,1.72-5.75,2.09.31,4.15,1.45,6.1,3.68,1.37,1.56,1.83,3.33,1.68,5.01,1.07.7,2.11,1.7,3.12,3.09.33.45.58,1,.76,1.6,1.9-.91,3.85-1.77,5.82-2.58.05-.01.09-.04.14-.04-2.58,2.07-5.5,3.6-8.57,4.91-.52-1.2-1.38-2.27-2.6-3.04-2.14-1.33-4.27-2.67-6.42-4.01-.5-.96-1.08-1.91-1.75-2.85Z"/>
    <path class="cls-19" d="m277.73,164.81c-10.05,9.21-21.98,16.35-29.19,28.62-2.76,4.7-4.95,9.61-6.75,14.66,0,.23-.02.45-.04.68-.97,1.43-1.62,2.91-2.17,4.57-.93,2.84-1.48,5.82-1.72,8.82-2.52,11.5-3.65,23.4-4.77,35.01-.13,1.28-.54,2.3-1.14,3.05.41,14.66-2.34,28.83-10.76,42.25-6.1,9.74-13.84,18.3-22.32,26.03-1.26,1.16-2.75,2.36-4.29,3.62-.11.03-.22.06-.32.1-11.72,4.86-20.74,14.9-25.65,26.54-1.22-.98-2.09-2.45-2.25-4.43-.03-.31-.04-.63-.05-.94,1.84-7.3,6.79-13.12,12.83-18.16,8.16-6.79,15.55-13.54,21.97-22.05,6.14-8.15,12.69-16.82,16.88-26.16,4.38-9.75,7.15-21.63,7.89-32.27.73-10.61-.76-21.14.59-31.74,1.15-9.04,3.88-17.9,7.77-26.16,6.64-14.13,21.62-37.42,39.92-34.02,1.59.3,2.76,1.01,3.55,1.97Z"/>
    <path class="cls-19" d="m211.98,216.9c-.2-1.05-.37-2.08-.52-3.13-4.35,5.56-9.54,10.57-15.04,15.09-4.63,3.8-9.42,7.41-14.29,10.94-2.79,6.09-5.19,12.34-7.35,18.69-1.1,1.95-2.06,3.98-2.91,6.07-.07.17-.18.32-.26.47-.52-1.68-.91-3.41-.94-5.3-.08-4.85-.29-9.72-.49-14.58-.45.12-.88.24-1.32.36.41-2.99,1.27-5.83,3.32-8.49,5.13-6.67,10.88-12.76,17.67-17.74,3.23-2.38,5.21-4.31,7.62-7.49,2.12-2.78,4.59-4.71,8.32-4.07,5.18.87,6.49,4.87,6.2,9.17Z"/>
    <path class="cls-19" d="m220.93,151.27c-.14-.2-.29-.39-.45-.57-1.32-1.5-3.25-2.5-5.25-3.4-1.96.14-3.91.3-5.87.44-.26.02-.51.05-.77.07-12.4,7.22-25.7,12.86-39.58,16.58-3.38.91-6.93,1.5-10.49,2.09-11.31.34-22.71-.11-33.13,5.09-5.39,2.67-10.11,6.25-14.5,10.24-.34-1.35-.16-2.81.78-4.21.98-1.45,1.99-2.88,3.03-4.29.59-.55,1.08-1.23,1.45-1.93,1.33-1.74,2.72-3.44,4.14-5.09-.33.06-.65.13-.98.19.2-.16.4-.31.57-.49,1.16-1.13,2.31-2.25,3.46-3.36,11.14-4.44,23.26-6.46,35.23-8.23,10-1.48,19.74-3.31,29.49-6.02,9.32-2.6,18.41-4.55,28.05-2.61,3.21.64,4.7,3,4.81,5.5Z"/>
    <text class="cls-24" transform="translate(82.07 171.81) rotate(-2.29)"><tspan class="cls-28" x="0" y="0">C</tspan><tspan x="9.08" y="0">d</tspan></text>
    <text class="cls-23" transform="translate(139.95 296.96) rotate(-2.29)"><tspan x="0" y="0">Cr</tspan></text>
    <text class="cls-24" transform="translate(296.53 283.77) rotate(-2.29)"><tspan class="cls-26" x="0" y="0">C</tspan><tspan x="9.14" y="0">u</tspan></text>
  </g>
  <polygon class="cls-20" points="532.92 464.53 512.02 448.4 536.44 438.37 532.92 464.53"/>
  <polygon class="cls-20" points="731.65 368.35 717.22 379.88 714.45 361.61 731.65 368.35"/>
  <polygon class="cls-20" points="897.19 532.86 855.2 528.83 879.69 494.49 897.19 532.86"/>
  <polygon class="cls-20" points="702.36 501.77 680.56 504.52 689.08 484.27 702.36 501.77"/>
  <polygon class="cls-20" points="913.88 339.69 887.34 343.03 897.71 318.38 913.88 339.69"/>
  <polygon class="cls-20" points="626.86 349.98 616.13 363.3 609.96 347.35 626.86 349.98"/>
</svg>